<mxfile host="app.diagrams.net" modified="2023-11-05T21:45:08.519Z" agent="Mozilla/5.0 (X11; Linux x86_64) AppleWebKit/537.36 (KHTML, like Gecko) Chrome/116.0.0.0 Safari/537.36" etag="f4SIHsGqNAAGsQuDUYd4" version="22.0.8" type="device">
  <diagram name="Page-1" id="UyU1f95R093Fk4vOOcOu">
    <mxGraphModel dx="1366" dy="766" grid="1" gridSize="10" guides="1" tooltips="1" connect="1" arrows="1" fold="1" page="1" pageScale="1" pageWidth="827" pageHeight="1169" math="0" shadow="0">
      <root>
        <mxCell id="0" />
        <mxCell id="1" parent="0" />
        <mxCell id="2mazr0XovST42O1dcT9X-20" style="edgeStyle=orthogonalEdgeStyle;rounded=0;orthogonalLoop=1;jettySize=auto;html=1;entryX=0;entryY=0.5;entryDx=0;entryDy=0;" edge="1" parent="1" source="2mazr0XovST42O1dcT9X-1" target="2mazr0XovST42O1dcT9X-6">
          <mxGeometry relative="1" as="geometry">
            <Array as="points">
              <mxPoint x="210" y="510" />
            </Array>
          </mxGeometry>
        </mxCell>
        <mxCell id="2mazr0XovST42O1dcT9X-1" value="Node1" style="rounded=1;whiteSpace=wrap;html=1;" vertex="1" parent="1">
          <mxGeometry x="150" y="320" width="120" height="60" as="geometry" />
        </mxCell>
        <mxCell id="2mazr0XovST42O1dcT9X-21" style="edgeStyle=orthogonalEdgeStyle;rounded=0;orthogonalLoop=1;jettySize=auto;html=1;entryX=0.5;entryY=0;entryDx=0;entryDy=0;" edge="1" parent="1" source="2mazr0XovST42O1dcT9X-2" target="2mazr0XovST42O1dcT9X-6">
          <mxGeometry relative="1" as="geometry" />
        </mxCell>
        <mxCell id="2mazr0XovST42O1dcT9X-2" value="Node2" style="rounded=1;whiteSpace=wrap;html=1;" vertex="1" parent="1">
          <mxGeometry x="370" y="320" width="120" height="60" as="geometry" />
        </mxCell>
        <mxCell id="2mazr0XovST42O1dcT9X-22" style="edgeStyle=orthogonalEdgeStyle;rounded=0;orthogonalLoop=1;jettySize=auto;html=1;entryX=1;entryY=0.5;entryDx=0;entryDy=0;exitX=0.5;exitY=1;exitDx=0;exitDy=0;" edge="1" parent="1" source="2mazr0XovST42O1dcT9X-3" target="2mazr0XovST42O1dcT9X-6">
          <mxGeometry relative="1" as="geometry" />
        </mxCell>
        <mxCell id="2mazr0XovST42O1dcT9X-3" value="Node3" style="rounded=1;whiteSpace=wrap;html=1;" vertex="1" parent="1">
          <mxGeometry x="590" y="320" width="120" height="60" as="geometry" />
        </mxCell>
        <mxCell id="2mazr0XovST42O1dcT9X-19" style="edgeStyle=orthogonalEdgeStyle;rounded=0;orthogonalLoop=1;jettySize=auto;html=1;entryX=0.5;entryY=0;entryDx=0;entryDy=0;" edge="1" parent="1" source="2mazr0XovST42O1dcT9X-5" target="2mazr0XovST42O1dcT9X-3">
          <mxGeometry relative="1" as="geometry" />
        </mxCell>
        <mxCell id="2mazr0XovST42O1dcT9X-5" value="producer3" style="rounded=0;whiteSpace=wrap;html=1;" vertex="1" parent="1">
          <mxGeometry x="590" y="130" width="120" height="60" as="geometry" />
        </mxCell>
        <mxCell id="2mazr0XovST42O1dcT9X-26" style="edgeStyle=orthogonalEdgeStyle;rounded=0;orthogonalLoop=1;jettySize=auto;html=1;" edge="1" parent="1" source="2mazr0XovST42O1dcT9X-6" target="2mazr0XovST42O1dcT9X-24">
          <mxGeometry relative="1" as="geometry" />
        </mxCell>
        <mxCell id="2mazr0XovST42O1dcT9X-27" style="edgeStyle=orthogonalEdgeStyle;rounded=0;orthogonalLoop=1;jettySize=auto;html=1;exitX=0.75;exitY=1;exitDx=0;exitDy=0;entryX=0.5;entryY=0;entryDx=0;entryDy=0;entryPerimeter=0;" edge="1" parent="1" source="2mazr0XovST42O1dcT9X-6" target="2mazr0XovST42O1dcT9X-25">
          <mxGeometry relative="1" as="geometry">
            <mxPoint x="460" y="550" as="sourcePoint" />
            <mxPoint x="630" y="610" as="targetPoint" />
            <Array as="points">
              <mxPoint x="460" y="550" />
              <mxPoint x="630" y="550" />
            </Array>
          </mxGeometry>
        </mxCell>
        <mxCell id="2mazr0XovST42O1dcT9X-6" value="consumer (on node1)&lt;br&gt;(skip DBx for msg from Nodex)" style="rounded=0;whiteSpace=wrap;html=1;" vertex="1" parent="1">
          <mxGeometry x="350" y="480" width="150" height="60" as="geometry" />
        </mxCell>
        <mxCell id="2mazr0XovST42O1dcT9X-12" style="edgeStyle=orthogonalEdgeStyle;rounded=0;orthogonalLoop=1;jettySize=auto;html=1;exitX=0.5;exitY=1;exitDx=0;exitDy=0;" edge="1" parent="1" source="2mazr0XovST42O1dcT9X-7" target="2mazr0XovST42O1dcT9X-1">
          <mxGeometry relative="1" as="geometry" />
        </mxCell>
        <mxCell id="2mazr0XovST42O1dcT9X-7" value="producer1" style="rounded=0;whiteSpace=wrap;html=1;" vertex="1" parent="1">
          <mxGeometry x="150" y="130" width="120" height="60" as="geometry" />
        </mxCell>
        <mxCell id="2mazr0XovST42O1dcT9X-18" style="edgeStyle=orthogonalEdgeStyle;rounded=0;orthogonalLoop=1;jettySize=auto;html=1;entryX=0.5;entryY=0;entryDx=0;entryDy=0;" edge="1" parent="1" source="2mazr0XovST42O1dcT9X-9" target="2mazr0XovST42O1dcT9X-2">
          <mxGeometry relative="1" as="geometry" />
        </mxCell>
        <mxCell id="2mazr0XovST42O1dcT9X-9" value="producer2" style="rounded=0;whiteSpace=wrap;html=1;" vertex="1" parent="1">
          <mxGeometry x="370" y="130" width="120" height="60" as="geometry" />
        </mxCell>
        <mxCell id="2mazr0XovST42O1dcT9X-10" value="" style="shape=flexArrow;endArrow=classic;startArrow=classic;html=1;rounded=0;entryX=0;entryY=0.5;entryDx=0;entryDy=0;" edge="1" parent="1" source="2mazr0XovST42O1dcT9X-1" target="2mazr0XovST42O1dcT9X-2">
          <mxGeometry width="100" height="100" relative="1" as="geometry">
            <mxPoint x="320" y="365" as="sourcePoint" />
            <mxPoint x="370" y="335" as="targetPoint" />
          </mxGeometry>
        </mxCell>
        <mxCell id="2mazr0XovST42O1dcT9X-11" value="" style="shape=flexArrow;endArrow=classic;startArrow=classic;html=1;rounded=0;entryX=0;entryY=0.5;entryDx=0;entryDy=0;" edge="1" parent="1">
          <mxGeometry width="100" height="100" relative="1" as="geometry">
            <mxPoint x="490" y="349.5" as="sourcePoint" />
            <mxPoint x="590" y="349.5" as="targetPoint" />
          </mxGeometry>
        </mxCell>
        <mxCell id="2mazr0XovST42O1dcT9X-23" value="DB1" style="shape=cylinder3;whiteSpace=wrap;html=1;boundedLbl=1;backgroundOutline=1;size=15;" vertex="1" parent="1">
          <mxGeometry x="190" y="630" width="60" height="90" as="geometry" />
        </mxCell>
        <mxCell id="2mazr0XovST42O1dcT9X-24" value="DB2" style="shape=cylinder3;whiteSpace=wrap;html=1;boundedLbl=1;backgroundOutline=1;size=15;" vertex="1" parent="1">
          <mxGeometry x="400" y="630" width="60" height="90" as="geometry" />
        </mxCell>
        <mxCell id="2mazr0XovST42O1dcT9X-25" value="DB3" style="shape=cylinder3;whiteSpace=wrap;html=1;boundedLbl=1;backgroundOutline=1;size=15;" vertex="1" parent="1">
          <mxGeometry x="600" y="630" width="60" height="90" as="geometry" />
        </mxCell>
        <mxCell id="2mazr0XovST42O1dcT9X-28" style="edgeStyle=orthogonalEdgeStyle;rounded=0;orthogonalLoop=1;jettySize=auto;html=1;exitX=0.25;exitY=1;exitDx=0;exitDy=0;entryX=0.5;entryY=0;entryDx=0;entryDy=0;entryPerimeter=0;" edge="1" parent="1" source="2mazr0XovST42O1dcT9X-6" target="2mazr0XovST42O1dcT9X-23">
          <mxGeometry relative="1" as="geometry" />
        </mxCell>
      </root>
    </mxGraphModel>
  </diagram>
</mxfile>
